<svg width="75" height="74" viewBox="0 0 75 74" fill="none" xmlns="http://www.w3.org/2000/svg">
<path d="M54.5146 47.572C58.9661 41.5918 60.9599 34.1773 60.0971 26.8119C59.2342 19.4466 55.5784 12.6736 49.861 7.84789C44.1437 3.02223 36.7863 0.499807 29.261 0.785277C21.7357 1.07075 14.5973 4.14305 9.27407 9.38754C3.95081 14.632 0.835238 21.6619 0.550658 29.0708C0.266079 36.4797 2.83348 43.7211 7.73922 49.3464C12.645 54.9717 19.5273 58.566 27.0092 59.4102C34.4911 60.2544 42.0209 58.2862 48.0922 53.8994H48.0876C48.2255 54.0804 48.3726 54.2524 48.5381 54.4199L66.2376 71.845C67.0996 72.6943 68.269 73.1716 69.4885 73.172C70.7081 73.1725 71.8778 72.6959 72.7404 71.8473C73.6031 70.9986 74.0879 69.8473 74.0884 68.6467C74.0888 67.4461 73.6048 66.2945 72.7427 65.4452L55.0433 48.0201C54.8789 47.8563 54.7022 47.7095 54.5146 47.572ZM55.7007 30.1741C55.7007 33.4431 55.0466 36.6801 53.776 39.7002C52.5053 42.7204 50.6428 45.4646 48.2949 47.7761C45.9469 50.0876 43.1595 51.9213 40.0918 53.1722C37.0241 54.4232 33.7362 55.0671 30.4157 55.0671C27.0952 55.0671 23.8073 54.4232 20.7395 53.1722C17.6718 51.9213 14.8844 50.0876 12.5365 47.7761C10.1886 45.4646 8.32609 42.7204 7.0554 39.7002C5.78471 36.6801 5.13069 33.4431 5.13069 30.1741C5.13069 23.572 7.79464 17.2404 12.5365 12.5721C17.2784 7.90371 23.7097 5.28106 30.4157 5.28106C37.1217 5.28106 43.553 7.90371 48.2949 12.5721C53.0367 17.2404 55.7007 23.572 55.7007 30.1741Z" fill="#EBE9E9"/>
</svg>
